  0
SECTION
  2
HEADER
  9
$ACADVER
  1
AC1009
  9
$EXTMIN
 10
0.0
 20
0.0
 30
0.0
  9
$EXTMAX
 10
1000.0
 20
1000.0
 30
0.0
  9
$FILLMODE
 70
 0
  9
$SPLFRAME
 70
 1
  0
ENDSEC
  0
SECTION
  2
TABLES
  0
TABLE
  2
LAYER
 70
1
  0
LAYER
  2
0
 70
     0
 62
     7
  6
CONTINUOUS
  0
ENDTAB
  0
ENDSEC
  0
SECTION
  2
ENTITIES
  0
LINE
  8
0
 62
     9
 10
4.00043
 20
63.9988
 30
0.0
 11
13.2305
 21
63.9988
 31
0.0
  0
LINE
  8
0
 62
     9
 10
13.2305
 20
63.9988
 30
0.0
 11
13.2305
 21
68.0007
 31
0.0
  0
LINE
  8
0
 62
     9
 10
13.2305
 20
68.0007
 30
0.0
 11
22.462
 21
68.0007
 31
0.0
  0
LINE
  8
0
 62
     9
 10
22.462
 20
68.0007
 30
0.0
 11
22.462
 21
63.9988
 31
0.0
  0
LINE
  8
0
 62
     9
 10
22.462
 20
63.9988
 30
0.0
 11
31.6921
 21
63.9988
 31
0.0
  0
LINE
  8
0
 62
     9
 10
31.6921
 20
63.9988
 30
0.0
 11
31.6921
 21
68.0007
 31
0.0
  0
LINE
  8
0
 62
     9
 10
31.6921
 20
68.0007
 30
0.0
 11
40.9236
 21
68.0007
 31
0.0
  0
LINE
  8
0
 62
     9
 10
40.9236
 20
68.0007
 30
0.0
 11
40.9236
 21
63.9988
 31
0.0
  0
LINE
  8
0
 62
     9
 10
40.9236
 20
63.9988
 30
0.0
 11
50.1537
 21
63.9988
 31
0.0
  0
LINE
  8
0
 62
     9
 10
50.1537
 20
63.9988
 30
0.0
 11
50.1537
 21
68.0007
 31
0.0
  0
LINE
  8
0
 62
     9
 10
50.1537
 20
68.0007
 30
0.0
 11
59.3852
 21
68.0007
 31
0.0
  0
LINE
  8
0
 62
     9
 10
59.3852
 20
68.0007
 30
0.0
 11
59.3852
 21
63.9988
 31
0.0
  0
LINE
  8
0
 62
     9
 10
59.3852
 20
63.9988
 30
0.0
 11
68.6153
 21
63.9988
 31
0.0
  0
LINE
  8
0
 62
     9
 10
68.6153
 20
63.9988
 30
0.0
 11
68.6153
 21
68.0007
 31
0.0
  0
LINE
  8
0
 62
     9
 10
68.6153
 20
68.0007
 30
0.0
 11
77.8468
 21
68.0007
 31
0.0
  0
LINE
  8
0
 62
     9
 10
77.8468
 20
68.0007
 30
0.0
 11
77.8468
 21
63.9988
 31
0.0
  0
LINE
  8
0
 62
     9
 10
77.8468
 20
63.9988
 30
0.0
 11
87.0768
 21
63.9988
 31
0.0
  0
LINE
  8
0
 62
     9
 10
87.0768
 20
63.9988
 30
0.0
 11
87.0768
 21
68.0007
 31
0.0
  0
LINE
  8
0
 62
     9
 10
87.0768
 20
68.0007
 30
0.0
 11
96.3083
 21
68.0007
 31
0.0
  0
LINE
  8
0
 62
     9
 10
96.3083
 20
68.0007
 30
0.0
 11
96.3083
 21
63.9988
 31
0.0
  0
LINE
  8
0
 62
     9
 10
96.3083
 20
63.9988
 30
0.0
 11
105.538
 21
63.9988
 31
0.0
  0
LINE
  8
0
 62
     9
 10
105.538
 20
63.9988
 30
0.0
 11
105.538
 21
68.0007
 31
0.0
  0
LINE
  8
0
 62
     9
 10
105.538
 20
68.0007
 30
0.0
 11
114.77
 21
68.0007
 31
0.0
  0
LINE
  8
0
 62
     9
 10
114.77
 20
68.0007
 30
0.0
 11
114.77
 21
63.9988
 31
0.0
  0
LINE
  8
0
 62
     9
 10
114.77
 20
63.9988
 30
0.0
 11
124
 21
63.9988
 31
0.0
  0
LINE
  8
0
 62
     9
 10
124
 20
63.9988
 30
0.0
 11
124
 21
53.9997
 31
0.0
  0
LINE
  8
0
 62
     9
 10
124
 20
53.9997
 30
0.0
 11
128
 21
53.9997
 31
0.0
  0
LINE
  8
0
 62
     9
 10
128
 20
53.9997
 30
0.0
 11
128
 21
44.0009
 31
0.0
  0
LINE
  8
0
 62
     9
 10
128
 20
44.0009
 30
0.0
 11
124
 21
44.0009
 31
0.0
  0
LINE
  8
0
 62
     9
 10
124
 20
44.0009
 30
0.0
 11
124
 21
33.999
 31
0.0
  0
LINE
  8
0
 62
     9
 10
124
 20
33.999
 30
0.0
 11
128
 21
33.999
 31
0.0
  0
LINE
  8
0
 62
     9
 10
128
 20
33.999
 30
0.0
 11
128
 21
23.9999
 31
0.0
  0
LINE
  8
0
 62
     9
 10
128
 20
23.9999
 30
0.0
 11
124
 21
23.9999
 31
0.0
  0
LINE
  8
0
 62
     9
 10
124
 20
23.9999
 30
0.0
 11
124
 21
14.0009
 31
0.0
  0
LINE
  8
0
 62
     9
 10
124
 20
14.0009
 30
0.0
 11
128
 21
14.0009
 31
0.0
  0
LINE
  8
0
 62
     9
 10
128
 20
14.0009
 30
0.0
 11
128
 21
4.00043
 31
0.0
  0
LINE
  8
0
 62
     9
 10
128
 20
4.00043
 30
0.0
 11
114.77
 21
4.00043
 31
0.0
  0
LINE
  8
0
 62
     9
 10
114.77
 20
4.00043
 30
0.0
 11
114.77
 21
-0.00137804
 31
0.0
  0
LINE
  8
0
 62
     9
 10
114.77
 20
-0.00137804
 30
0.0
 11
105.538
 21
-0.00137804
 31
0.0
  0
LINE
  8
0
 62
     9
 10
105.538
 20
-0.00137804
 30
0.0
 11
105.538
 21
4.00043
 31
0.0
  0
LINE
  8
0
 62
     9
 10
105.538
 20
4.00043
 30
0.0
 11
96.3083
 21
4.00043
 31
0.0
  0
LINE
  8
0
 62
     9
 10
96.3083
 20
4.00043
 30
0.0
 11
96.3083
 21
-0.00137804
 31
0.0
  0
LINE
  8
0
 62
     9
 10
96.3083
 20
-0.00137804
 30
0.0
 11
87.0768
 21
-0.00137804
 31
0.0
  0
LINE
  8
0
 62
     9
 10
87.0768
 20
-0.00137804
 30
0.0
 11
87.0768
 21
4.00043
 31
0.0
  0
LINE
  8
0
 62
     9
 10
87.0768
 20
4.00043
 30
0.0
 11
77.8468
 21
4.00043
 31
0.0
  0
LINE
  8
0
 62
     9
 10
77.8468
 20
4.00043
 30
0.0
 11
77.8468
 21
-0.00137804
 31
0.0
  0
LINE
  8
0
 62
     9
 10
77.8468
 20
-0.00137804
 30
0.0
 11
68.6153
 21
-0.00137804
 31
0.0
  0
LINE
  8
0
 62
     9
 10
68.6153
 20
-0.00137804
 30
0.0
 11
68.6153
 21
4.00043
 31
0.0
  0
LINE
  8
0
 62
     9
 10
68.6153
 20
4.00043
 30
0.0
 11
59.3852
 21
4.00043
 31
0.0
  0
LINE
  8
0
 62
     9
 10
59.3852
 20
4.00043
 30
0.0
 11
59.3852
 21
-0.00137804
 31
0.0
  0
LINE
  8
0
 62
     9
 10
59.3852
 20
-0.00137804
 30
0.0
 11
50.1537
 21
-0.00137804
 31
0.0
  0
LINE
  8
0
 62
     9
 10
50.1537
 20
-0.00137804
 30
0.0
 11
50.1537
 21
4.00043
 31
0.0
  0
LINE
  8
0
 62
     9
 10
50.1537
 20
4.00043
 30
0.0
 11
40.9236
 21
4.00043
 31
0.0
  0
LINE
  8
0
 62
     9
 10
40.9236
 20
4.00043
 30
0.0
 11
40.9236
 21
-0.00137804
 31
0.0
  0
LINE
  8
0
 62
     9
 10
40.9236
 20
-0.00137804
 30
0.0
 11
31.6921
 21
-0.00137804
 31
0.0
  0
LINE
  8
0
 62
     9
 10
31.6921
 20
-0.00137804
 30
0.0
 11
31.6921
 21
4.00043
 31
0.0
  0
LINE
  8
0
 62
     9
 10
31.6921
 20
4.00043
 30
0.0
 11
22.462
 21
4.00043
 31
0.0
  0
LINE
  8
0
 62
     9
 10
22.462
 20
4.00043
 30
0.0
 11
22.462
 21
-0.00137804
 31
0.0
  0
LINE
  8
0
 62
     9
 10
22.462
 20
-0.00137804
 30
0.0
 11
13.2305
 21
-0.00137804
 31
0.0
  0
LINE
  8
0
 62
     9
 10
13.2305
 20
-0.00137804
 30
0.0
 11
13.2305
 21
4.00043
 31
0.0
  0
LINE
  8
0
 62
     9
 10
13.2305
 20
4.00043
 30
0.0
 11
4.00043
 21
4.00043
 31
0.0
  0
LINE
  8
0
 62
     9
 10
4.00043
 20
4.00043
 30
0.0
 11
4.00043
 21
14.0009
 31
0.0
  0
LINE
  8
0
 62
     9
 10
4.00043
 20
14.0009
 30
0.0
 11
0
 21
14.0009
 31
0.0
  0
LINE
  8
0
 62
     9
 10
0
 20
14.0009
 30
0.0
 11
0
 21
23.9999
 31
0.0
  0
LINE
  8
0
 62
     9
 10
0
 20
23.9999
 30
0.0
 11
4.00043
 21
23.9999
 31
0.0
  0
LINE
  8
0
 62
     9
 10
4.00043
 20
23.9999
 30
0.0
 11
4.00043
 21
33.999
 31
0.0
  0
LINE
  8
0
 62
     9
 10
4.00043
 20
33.999
 30
0.0
 11
0
 21
33.999
 31
0.0
  0
LINE
  8
0
 62
     9
 10
0
 20
33.999
 30
0.0
 11
0
 21
44.0009
 31
0.0
  0
LINE
  8
0
 62
     9
 10
0
 20
44.0009
 30
0.0
 11
4.00043
 21
44.0009
 31
0.0
  0
LINE
  8
0
 62
     9
 10
4.00043
 20
44.0009
 30
0.0
 11
4.00043
 21
53.9997
 31
0.0
  0
LINE
  8
0
 62
     9
 10
4.00043
 20
53.9997
 30
0.0
 11
0
 21
53.9997
 31
0.0
  0
LINE
  8
0
 62
     9
 10
0
 20
53.9997
 30
0.0
 11
0
 21
63.9988
 31
0.0
  0
LINE
  8
0
 62
     9
 10
0
 20
63.9988
 30
0.0
 11
4.00043
 21
63.9988
 31
0.0
  0
ENDSEC
  0
EOF
