  0
SECTION
  2
HEADER
  9
$ACADVER
  1
AC1009
  9
$EXTMIN
 10
0.0
 20
0.0
 30
0.0
  9
$EXTMAX
 10
1000.0
 20
1000.0
 30
0.0
  9
$FILLMODE
 70
 0
  9
$SPLFRAME
 70
 1
  0
ENDSEC
  0
SECTION
  2
TABLES
  0
TABLE
  2
LAYER
 70
1
  0
LAYER
  2
0
 70
     0
 62
     7
  6
CONTINUOUS
  0
ENDTAB
  0
ENDSEC
  0
SECTION
  2
ENTITIES
  0
LINE
  8
0
 62
     9
 10
0
 20
128
 30
0.0
 11
13.0914
 21
128
 31
0.0
  0
LINE
  8
0
 62
     9
 10
13.0914
 20
128
 30
0.0
 11
13.0914
 21
124
 31
0.0
  0
LINE
  8
0
 62
     9
 10
13.0914
 20
124
 30
0.0
 11
22.1823
 21
124
 31
0.0
  0
LINE
  8
0
 62
     9
 10
22.1823
 20
124
 30
0.0
 11
22.1823
 21
128
 31
0.0
  0
LINE
  8
0
 62
     9
 10
22.1823
 20
128
 30
0.0
 11
31.2732
 21
128
 31
0.0
  0
LINE
  8
0
 62
     9
 10
31.2732
 20
128
 30
0.0
 11
31.2732
 21
124
 31
0.0
  0
LINE
  8
0
 62
     9
 10
31.2732
 20
124
 30
0.0
 11
40.3641
 21
124
 31
0.0
  0
LINE
  8
0
 62
     9
 10
40.3641
 20
124
 30
0.0
 11
40.3641
 21
128
 31
0.0
  0
LINE
  8
0
 62
     9
 10
40.3641
 20
128
 30
0.0
 11
49.4552
 21
128
 31
0.0
  0
LINE
  8
0
 62
     9
 10
49.4552
 20
128
 30
0.0
 11
49.4552
 21
124
 31
0.0
  0
LINE
  8
0
 62
     9
 10
49.4552
 20
124
 30
0.0
 11
58.5459
 21
124
 31
0.0
  0
LINE
  8
0
 62
     9
 10
58.5459
 20
124
 30
0.0
 11
58.5459
 21
128
 31
0.0
  0
LINE
  8
0
 62
     9
 10
58.5459
 20
128
 30
0.0
 11
67.637
 21
128
 31
0.0
  0
LINE
  8
0
 62
     9
 10
67.637
 20
128
 30
0.0
 11
67.637
 21
124
 31
0.0
  0
LINE
  8
0
 62
     9
 10
67.637
 20
124
 30
0.0
 11
76.7278
 21
124
 31
0.0
  0
LINE
  8
0
 62
     9
 10
76.7278
 20
124
 30
0.0
 11
76.7278
 21
128
 31
0.0
  0
LINE
  8
0
 62
     9
 10
76.7278
 20
128
 30
0.0
 11
85.8188
 21
128
 31
0.0
  0
LINE
  8
0
 62
     9
 10
85.8188
 20
128
 30
0.0
 11
85.8188
 21
124
 31
0.0
  0
LINE
  8
0
 62
     9
 10
85.8188
 20
124
 30
0.0
 11
94.9096
 21
124
 31
0.0
  0
LINE
  8
0
 62
     9
 10
94.9096
 20
124
 30
0.0
 11
94.9096
 21
128
 31
0.0
  0
LINE
  8
0
 62
     9
 10
94.9096
 20
128
 30
0.0
 11
108
 21
128
 31
0.0
  0
LINE
  8
0
 62
     9
 10
108
 20
128
 30
0.0
 11
108
 21
114.77
 31
0.0
  0
LINE
  8
0
 62
     9
 10
108
 20
114.77
 30
0.0
 11
104.001
 21
114.77
 31
0.0
  0
LINE
  8
0
 62
     9
 10
104.001
 20
114.77
 30
0.0
 11
104.001
 21
105.538
 31
0.0
  0
LINE
  8
0
 62
     9
 10
104.001
 20
105.538
 30
0.0
 11
108
 21
105.538
 31
0.0
  0
LINE
  8
0
 62
     9
 10
108
 20
105.538
 30
0.0
 11
108
 21
96.3083
 31
0.0
  0
LINE
  8
0
 62
     9
 10
108
 20
96.3083
 30
0.0
 11
104.001
 21
96.3083
 31
0.0
  0
LINE
  8
0
 62
     9
 10
104.001
 20
96.3083
 30
0.0
 11
104.001
 21
87.0768
 31
0.0
  0
LINE
  8
0
 62
     9
 10
104.001
 20
87.0768
 30
0.0
 11
108
 21
87.0768
 31
0.0
  0
LINE
  8
0
 62
     9
 10
108
 20
87.0768
 30
0.0
 11
108
 21
77.8468
 31
0.0
  0
LINE
  8
0
 62
     9
 10
108
 20
77.8468
 30
0.0
 11
104.001
 21
77.8468
 31
0.0
  0
LINE
  8
0
 62
     9
 10
104.001
 20
77.8468
 30
0.0
 11
104.001
 21
68.6153
 31
0.0
  0
LINE
  8
0
 62
     9
 10
104.001
 20
68.6153
 30
0.0
 11
108
 21
68.6153
 31
0.0
  0
LINE
  8
0
 62
     9
 10
108
 20
68.6153
 30
0.0
 11
108
 21
59.3852
 31
0.0
  0
LINE
  8
0
 62
     9
 10
108
 20
59.3852
 30
0.0
 11
104.001
 21
59.3852
 31
0.0
  0
LINE
  8
0
 62
     9
 10
104.001
 20
59.3852
 30
0.0
 11
104.001
 21
50.1537
 31
0.0
  0
LINE
  8
0
 62
     9
 10
104.001
 20
50.1537
 30
0.0
 11
108
 21
50.1537
 31
0.0
  0
LINE
  8
0
 62
     9
 10
108
 20
50.1537
 30
0.0
 11
108
 21
40.9236
 31
0.0
  0
LINE
  8
0
 62
     9
 10
108
 20
40.9236
 30
0.0
 11
104.001
 21
40.9236
 31
0.0
  0
LINE
  8
0
 62
     9
 10
104.001
 20
40.9236
 30
0.0
 11
104.001
 21
31.6921
 31
0.0
  0
LINE
  8
0
 62
     9
 10
104.001
 20
31.6921
 30
0.0
 11
108
 21
31.6921
 31
0.0
  0
LINE
  8
0
 62
     9
 10
108
 20
31.6921
 30
0.0
 11
108
 21
22.462
 31
0.0
  0
LINE
  8
0
 62
     9
 10
108
 20
22.462
 30
0.0
 11
104.001
 21
22.462
 31
0.0
  0
LINE
  8
0
 62
     9
 10
104.001
 20
22.462
 30
0.0
 11
104.001
 21
13.2305
 31
0.0
  0
LINE
  8
0
 62
     9
 10
104.001
 20
13.2305
 30
0.0
 11
108
 21
13.2305
 31
0.0
  0
LINE
  8
0
 62
     9
 10
108
 20
13.2305
 30
0.0
 11
108
 21
0
 31
0.0
  0
LINE
  8
0
 62
     9
 10
108
 20
0
 30
0.0
 11
94.9096
 21
0
 31
0.0
  0
LINE
  8
0
 62
     9
 10
94.9096
 20
0
 30
0.0
 11
94.9096
 21
4.00043
 31
0.0
  0
LINE
  8
0
 62
     9
 10
94.9096
 20
4.00043
 30
0.0
 11
85.8188
 21
4.00043
 31
0.0
  0
LINE
  8
0
 62
     9
 10
85.8188
 20
4.00043
 30
0.0
 11
85.8188
 21
0
 31
0.0
  0
LINE
  8
0
 62
     9
 10
85.8188
 20
0
 30
0.0
 11
76.7278
 21
0
 31
0.0
  0
LINE
  8
0
 62
     9
 10
76.7278
 20
0
 30
0.0
 11
76.7278
 21
4.00043
 31
0.0
  0
LINE
  8
0
 62
     9
 10
76.7278
 20
4.00043
 30
0.0
 11
67.637
 21
4.00043
 31
0.0
  0
LINE
  8
0
 62
     9
 10
67.637
 20
4.00043
 30
0.0
 11
67.637
 21
0
 31
0.0
  0
LINE
  8
0
 62
     9
 10
67.637
 20
0
 30
0.0
 11
58.5459
 21
0
 31
0.0
  0
LINE
  8
0
 62
     9
 10
58.5459
 20
0
 30
0.0
 11
58.5459
 21
4.00043
 31
0.0
  0
LINE
  8
0
 62
     9
 10
58.5459
 20
4.00043
 30
0.0
 11
49.4552
 21
4.00043
 31
0.0
  0
LINE
  8
0
 62
     9
 10
49.4552
 20
4.00043
 30
0.0
 11
49.4552
 21
0
 31
0.0
  0
LINE
  8
0
 62
     9
 10
49.4552
 20
0
 30
0.0
 11
40.3641
 21
0
 31
0.0
  0
LINE
  8
0
 62
     9
 10
40.3641
 20
0
 30
0.0
 11
40.3641
 21
4.00043
 31
0.0
  0
LINE
  8
0
 62
     9
 10
40.3641
 20
4.00043
 30
0.0
 11
31.2732
 21
4.00043
 31
0.0
  0
LINE
  8
0
 62
     9
 10
31.2732
 20
4.00043
 30
0.0
 11
31.2732
 21
0
 31
0.0
  0
LINE
  8
0
 62
     9
 10
31.2732
 20
0
 30
0.0
 11
22.1823
 21
0
 31
0.0
  0
LINE
  8
0
 62
     9
 10
22.1823
 20
0
 30
0.0
 11
22.1823
 21
4.00043
 31
0.0
  0
LINE
  8
0
 62
     9
 10
22.1823
 20
4.00043
 30
0.0
 11
13.0914
 21
4.00043
 31
0.0
  0
LINE
  8
0
 62
     9
 10
13.0914
 20
4.00043
 30
0.0
 11
13.0914
 21
0
 31
0.0
  0
LINE
  8
0
 62
     9
 10
13.0914
 20
0
 30
0.0
 11
0
 21
0
 31
0.0
  0
LINE
  8
0
 62
     9
 10
0
 20
0
 30
0.0
 11
0
 21
13.2305
 31
0.0
  0
LINE
  8
0
 62
     9
 10
0
 20
13.2305
 30
0.0
 11
4.00043
 21
13.2305
 31
0.0
  0
LINE
  8
0
 62
     9
 10
4.00043
 20
13.2305
 30
0.0
 11
4.00043
 21
22.462
 31
0.0
  0
LINE
  8
0
 62
     9
 10
4.00043
 20
22.462
 30
0.0
 11
0
 21
22.462
 31
0.0
  0
LINE
  8
0
 62
     9
 10
0
 20
22.462
 30
0.0
 11
0
 21
31.6921
 31
0.0
  0
LINE
  8
0
 62
     9
 10
0
 20
31.6921
 30
0.0
 11
4.00043
 21
31.6921
 31
0.0
  0
LINE
  8
0
 62
     9
 10
4.00043
 20
31.6921
 30
0.0
 11
4.00043
 21
40.9236
 31
0.0
  0
LINE
  8
0
 62
     9
 10
4.00043
 20
40.9236
 30
0.0
 11
0
 21
40.9236
 31
0.0
  0
LINE
  8
0
 62
     9
 10
0
 20
40.9236
 30
0.0
 11
0
 21
50.1537
 31
0.0
  0
LINE
  8
0
 62
     9
 10
0
 20
50.1537
 30
0.0
 11
4.00043
 21
50.1537
 31
0.0
  0
LINE
  8
0
 62
     9
 10
4.00043
 20
50.1537
 30
0.0
 11
4.00043
 21
59.3852
 31
0.0
  0
LINE
  8
0
 62
     9
 10
4.00043
 20
59.3852
 30
0.0
 11
0
 21
59.3852
 31
0.0
  0
LINE
  8
0
 62
     9
 10
0
 20
59.3852
 30
0.0
 11
0
 21
68.6153
 31
0.0
  0
LINE
  8
0
 62
     9
 10
0
 20
68.6153
 30
0.0
 11
4.00043
 21
68.6153
 31
0.0
  0
LINE
  8
0
 62
     9
 10
4.00043
 20
68.6153
 30
0.0
 11
4.00043
 21
77.8468
 31
0.0
  0
LINE
  8
0
 62
     9
 10
4.00043
 20
77.8468
 30
0.0
 11
0
 21
77.8468
 31
0.0
  0
LINE
  8
0
 62
     9
 10
0
 20
77.8468
 30
0.0
 11
0
 21
87.0768
 31
0.0
  0
LINE
  8
0
 62
     9
 10
0
 20
87.0768
 30
0.0
 11
4.00043
 21
87.0768
 31
0.0
  0
LINE
  8
0
 62
     9
 10
4.00043
 20
87.0768
 30
0.0
 11
4.00043
 21
96.3083
 31
0.0
  0
LINE
  8
0
 62
     9
 10
4.00043
 20
96.3083
 30
0.0
 11
0
 21
96.3083
 31
0.0
  0
LINE
  8
0
 62
     9
 10
0
 20
96.3083
 30
0.0
 11
0
 21
105.538
 31
0.0
  0
LINE
  8
0
 62
     9
 10
0
 20
105.538
 30
0.0
 11
4.00043
 21
105.538
 31
0.0
  0
LINE
  8
0
 62
     9
 10
4.00043
 20
105.538
 30
0.0
 11
4.00043
 21
114.77
 31
0.0
  0
LINE
  8
0
 62
     9
 10
4.00043
 20
114.77
 30
0.0
 11
0
 21
114.77
 31
0.0
  0
LINE
  8
0
 62
     9
 10
0
 20
114.77
 30
0.0
 11
0
 21
128
 31
0.0
  0
ENDSEC
  0
EOF
