  0
SECTION
  2
HEADER
  9
$ACADVER
  1
AC1009
  9
$EXTMIN
 10
0.0
 20
0.0
 30
0.0
  9
$EXTMAX
 10
1000.0
 20
1000.0
 30
0.0
  9
$FILLMODE
 70
 0
  9
$SPLFRAME
 70
 1
  0
ENDSEC
  0
SECTION
  2
TABLES
  0
TABLE
  2
LAYER
 70
1
  0
LAYER
  2
0
 70
     0
 62
     7
  6
CONTINUOUS
  0
ENDTAB
  0
ENDSEC
  0
SECTION
  2
ENTITIES
  0
LINE
  8
0
 62
     9
 10
61.0002
 20
44.0009
 30
0.0
 11
61.0002
 21
44.293
 31
0.0
  0
LINE
  8
0
 62
     9
 10
61.0002
 20
44.293
 30
0.0
 11
61.2359
 21
45.1693
 31
0.0
  0
LINE
  8
0
 62
     9
 10
61.2359
 20
45.1693
 30
0.0
 11
61.8779
 21
46.1229
 31
0.0
  0
LINE
  8
0
 62
     9
 10
61.8779
 20
46.1229
 30
0.0
 11
62.8315
 21
46.7653
 31
0.0
  0
LINE
  8
0
 62
     9
 10
62.8315
 20
46.7653
 30
0.0
 11
63.7081
 21
47.0006
 31
0.0
  0
LINE
  8
0
 62
     9
 10
63.7081
 20
47.0006
 30
0.0
 11
64.0002
 21
47.0006
 31
0.0
  0
LINE
  8
0
 62
     9
 10
64.0002
 20
47.0006
 30
0.0
 11
64.2909
 21
47.0006
 31
0.0
  0
LINE
  8
0
 62
     9
 10
64.2909
 20
47.0006
 30
0.0
 11
65.1676
 21
46.7653
 31
0.0
  0
LINE
  8
0
 62
     9
 10
65.1676
 20
46.7653
 30
0.0
 11
66.1211
 21
46.1229
 31
0.0
  0
LINE
  8
0
 62
     9
 10
66.1211
 20
46.1229
 30
0.0
 11
66.7632
 21
45.1693
 31
0.0
  0
LINE
  8
0
 62
     9
 10
66.7632
 20
45.1693
 30
0.0
 11
67.0003
 21
44.293
 31
0.0
  0
LINE
  8
0
 62
     9
 10
67.0003
 20
44.293
 30
0.0
 11
67.0003
 21
44.0009
 31
0.0
  0
LINE
  8
0
 62
     9
 10
67.0003
 20
44.0009
 30
0.0
 11
67.0003
 21
29.767
 31
0.0
  0
LINE
  8
0
 62
     9
 10
67.0003
 20
29.767
 30
0.0
 11
67.4758
 21
29.5203
 31
0.0
  0
LINE
  8
0
 62
     9
 10
67.4758
 20
29.5203
 30
0.0
 11
68.738
 21
28.451
 31
0.0
  0
LINE
  8
0
 62
     9
 10
68.738
 20
28.451
 30
0.0
 11
69.9202
 21
26.6843
 31
0.0
  0
LINE
  8
0
 62
     9
 10
69.9202
 20
26.6843
 30
0.0
 11
70.4702
 21
24.6324
 31
0.0
  0
LINE
  8
0
 62
     9
 10
70.4702
 20
24.6324
 30
0.0
 11
70.4413
 21
22.9788
 31
0.0
  0
LINE
  8
0
 62
     9
 10
70.4413
 20
22.9788
 30
0.0
 11
70.3143
 21
22.4565
 31
0.0
  0
LINE
  8
0
 62
     9
 10
70.3143
 20
22.4565
 30
0.0
 11
70.1862
 21
21.9356
 31
0.0
  0
LINE
  8
0
 62
     9
 10
70.1862
 20
21.9356
 30
0.0
 11
69.4475
 21
20.4556
 31
0.0
  0
LINE
  8
0
 62
     9
 10
69.4475
 20
20.4556
 30
0.0
 11
68.0131
 21
18.8888
 31
0.0
  0
LINE
  8
0
 62
     9
 10
68.0131
 20
18.8888
 30
0.0
 11
66.1487
 21
17.8676
 31
0.0
  0
LINE
  8
0
 62
     9
 10
66.1487
 20
17.8676
 30
0.0
 11
64.5365
 21
17.5011
 31
0.0
  0
LINE
  8
0
 62
     9
 10
64.5365
 20
17.5011
 30
0.0
 11
64.0002
 21
17.5011
 31
0.0
  0
LINE
  8
0
 62
     9
 10
64.0002
 20
17.5011
 30
0.0
 11
63.4615
 21
17.5011
 31
0.0
  0
LINE
  8
0
 62
     9
 10
63.4615
 20
17.5011
 30
0.0
 11
61.849
 21
17.8676
 31
0.0
  0
LINE
  8
0
 62
     9
 10
61.849
 20
17.8676
 30
0.0
 11
59.986
 21
18.8888
 31
0.0
  0
LINE
  8
0
 62
     9
 10
59.986
 20
18.8888
 30
0.0
 11
58.5502
 21
20.4556
 31
0.0
  0
LINE
  8
0
 62
     9
 10
58.5502
 20
20.4556
 30
0.0
 11
57.8129
 21
21.9356
 31
0.0
  0
LINE
  8
0
 62
     9
 10
57.8129
 20
21.9356
 30
0.0
 11
57.6862
 21
22.4565
 31
0.0
  0
LINE
  8
0
 62
     9
 10
57.6862
 20
22.4565
 30
0.0
 11
57.5578
 21
22.9788
 31
0.0
  0
LINE
  8
0
 62
     9
 10
57.5578
 20
22.9788
 30
0.0
 11
57.5289
 21
24.6324
 31
0.0
  0
LINE
  8
0
 62
     9
 10
57.5289
 20
24.6324
 30
0.0
 11
58.0803
 21
26.6843
 31
0.0
  0
LINE
  8
0
 62
     9
 10
58.0803
 20
26.6843
 30
0.0
 11
59.261
 21
28.451
 31
0.0
  0
LINE
  8
0
 62
     9
 10
59.261
 20
28.451
 30
0.0
 11
60.5236
 21
29.519
 31
0.0
  0
LINE
  8
0
 62
     9
 10
60.5236
 20
29.519
 30
0.0
 11
61.0002
 21
29.767
 31
0.0
  0
LINE
  8
0
 62
     9
 10
61.0002
 20
29.767
 30
0.0
 11
61.0002
 21
44.0009
 31
0.0
  0
ENDSEC
  0
EOF
