  0
SECTION
  2
HEADER
  9
$ACADVER
  1
AC1009
  9
$EXTMIN
 10
0.0
 20
0.0
 30
0.0
  9
$EXTMAX
 10
1000.0
 20
1000.0
 30
0.0
  9
$FILLMODE
 70
 0
  9
$SPLFRAME
 70
 1
  0
ENDSEC
  0
SECTION
  2
TABLES
  0
TABLE
  2
LAYER
 70
1
  0
LAYER
  2
0
 70
     0
 62
     7
  6
CONTINUOUS
  0
ENDTAB
  0
ENDSEC
  0
SECTION
  2
ENTITIES
  0
LINE
  8
0
 62
     9
 10
4.00043
 20
63.9988
 30
0.0
 11
13.0914
 21
63.9988
 31
0.0
  0
LINE
  8
0
 62
     9
 10
13.0914
 20
63.9988
 30
0.0
 11
13.0914
 21
68.0007
 31
0.0
  0
LINE
  8
0
 62
     9
 10
13.0914
 20
68.0007
 30
0.0
 11
22.1823
 21
68.0007
 31
0.0
  0
LINE
  8
0
 62
     9
 10
22.1823
 20
68.0007
 30
0.0
 11
22.1823
 21
63.9988
 31
0.0
  0
LINE
  8
0
 62
     9
 10
22.1823
 20
63.9988
 30
0.0
 11
31.2732
 21
63.9988
 31
0.0
  0
LINE
  8
0
 62
     9
 10
31.2732
 20
63.9988
 30
0.0
 11
31.2732
 21
68.0007
 31
0.0
  0
LINE
  8
0
 62
     9
 10
31.2732
 20
68.0007
 30
0.0
 11
40.3641
 21
68.0007
 31
0.0
  0
LINE
  8
0
 62
     9
 10
40.3641
 20
68.0007
 30
0.0
 11
40.3641
 21
63.9988
 31
0.0
  0
LINE
  8
0
 62
     9
 10
40.3641
 20
63.9988
 30
0.0
 11
49.4552
 21
63.9988
 31
0.0
  0
LINE
  8
0
 62
     9
 10
49.4552
 20
63.9988
 30
0.0
 11
49.4552
 21
68.0007
 31
0.0
  0
LINE
  8
0
 62
     9
 10
49.4552
 20
68.0007
 30
0.0
 11
58.5459
 21
68.0007
 31
0.0
  0
LINE
  8
0
 62
     9
 10
58.5459
 20
68.0007
 30
0.0
 11
58.5459
 21
63.9988
 31
0.0
  0
LINE
  8
0
 62
     9
 10
58.5459
 20
63.9988
 30
0.0
 11
67.637
 21
63.9988
 31
0.0
  0
LINE
  8
0
 62
     9
 10
67.637
 20
63.9988
 30
0.0
 11
67.637
 21
68.0007
 31
0.0
  0
LINE
  8
0
 62
     9
 10
67.637
 20
68.0007
 30
0.0
 11
76.7278
 21
68.0007
 31
0.0
  0
LINE
  8
0
 62
     9
 10
76.7278
 20
68.0007
 30
0.0
 11
76.7278
 21
63.9988
 31
0.0
  0
LINE
  8
0
 62
     9
 10
76.7278
 20
63.9988
 30
0.0
 11
85.8188
 21
63.9988
 31
0.0
  0
LINE
  8
0
 62
     9
 10
85.8188
 20
63.9988
 30
0.0
 11
85.8188
 21
68.0007
 31
0.0
  0
LINE
  8
0
 62
     9
 10
85.8188
 20
68.0007
 30
0.0
 11
94.9096
 21
68.0007
 31
0.0
  0
LINE
  8
0
 62
     9
 10
94.9096
 20
68.0007
 30
0.0
 11
94.9096
 21
63.9988
 31
0.0
  0
LINE
  8
0
 62
     9
 10
94.9096
 20
63.9988
 30
0.0
 11
104.001
 21
63.9988
 31
0.0
  0
LINE
  8
0
 62
     9
 10
104.001
 20
63.9988
 30
0.0
 11
104.001
 21
52.0001
 31
0.0
  0
LINE
  8
0
 62
     9
 10
104.001
 20
52.0001
 30
0.0
 11
108
 21
52.0001
 31
0.0
  0
LINE
  8
0
 62
     9
 10
108
 20
52.0001
 30
0.0
 11
108
 21
40.0004
 31
0.0
  0
LINE
  8
0
 62
     9
 10
108
 20
40.0004
 30
0.0
 11
104.001
 21
40.0004
 31
0.0
  0
LINE
  8
0
 62
     9
 10
104.001
 20
40.0004
 30
0.0
 11
104.001
 21
27.999
 31
0.0
  0
LINE
  8
0
 62
     9
 10
104.001
 20
27.999
 30
0.0
 11
108
 21
27.999
 31
0.0
  0
LINE
  8
0
 62
     9
 10
108
 20
27.999
 30
0.0
 11
108
 21
16.0004
 31
0.0
  0
LINE
  8
0
 62
     9
 10
108
 20
16.0004
 30
0.0
 11
104.001
 21
16.0004
 31
0.0
  0
LINE
  8
0
 62
     9
 10
104.001
 20
16.0004
 30
0.0
 11
104.001
 21
4.00043
 31
0.0
  0
LINE
  8
0
 62
     9
 10
104.001
 20
4.00043
 30
0.0
 11
94.9096
 21
4.00043
 31
0.0
  0
LINE
  8
0
 62
     9
 10
94.9096
 20
4.00043
 30
0.0
 11
94.9096
 21
-0.00137804
 31
0.0
  0
LINE
  8
0
 62
     9
 10
94.9096
 20
-0.00137804
 30
0.0
 11
85.8188
 21
-0.00137804
 31
0.0
  0
LINE
  8
0
 62
     9
 10
85.8188
 20
-0.00137804
 30
0.0
 11
85.8188
 21
4.00043
 31
0.0
  0
LINE
  8
0
 62
     9
 10
85.8188
 20
4.00043
 30
0.0
 11
76.7278
 21
4.00043
 31
0.0
  0
LINE
  8
0
 62
     9
 10
76.7278
 20
4.00043
 30
0.0
 11
76.7278
 21
-0.00137804
 31
0.0
  0
LINE
  8
0
 62
     9
 10
76.7278
 20
-0.00137804
 30
0.0
 11
67.637
 21
-0.00137804
 31
0.0
  0
LINE
  8
0
 62
     9
 10
67.637
 20
-0.00137804
 30
0.0
 11
67.637
 21
4.00043
 31
0.0
  0
LINE
  8
0
 62
     9
 10
67.637
 20
4.00043
 30
0.0
 11
58.5459
 21
4.00043
 31
0.0
  0
LINE
  8
0
 62
     9
 10
58.5459
 20
4.00043
 30
0.0
 11
58.5459
 21
-0.00137804
 31
0.0
  0
LINE
  8
0
 62
     9
 10
58.5459
 20
-0.00137804
 30
0.0
 11
49.4552
 21
-0.00137804
 31
0.0
  0
LINE
  8
0
 62
     9
 10
49.4552
 20
-0.00137804
 30
0.0
 11
49.4552
 21
4.00043
 31
0.0
  0
LINE
  8
0
 62
     9
 10
49.4552
 20
4.00043
 30
0.0
 11
40.3641
 21
4.00043
 31
0.0
  0
LINE
  8
0
 62
     9
 10
40.3641
 20
4.00043
 30
0.0
 11
40.3641
 21
-0.00137804
 31
0.0
  0
LINE
  8
0
 62
     9
 10
40.3641
 20
-0.00137804
 30
0.0
 11
31.2732
 21
-0.00137804
 31
0.0
  0
LINE
  8
0
 62
     9
 10
31.2732
 20
-0.00137804
 30
0.0
 11
31.2732
 21
4.00043
 31
0.0
  0
LINE
  8
0
 62
     9
 10
31.2732
 20
4.00043
 30
0.0
 11
22.1823
 21
4.00043
 31
0.0
  0
LINE
  8
0
 62
     9
 10
22.1823
 20
4.00043
 30
0.0
 11
22.1823
 21
-0.00137804
 31
0.0
  0
LINE
  8
0
 62
     9
 10
22.1823
 20
-0.00137804
 30
0.0
 11
13.0914
 21
-0.00137804
 31
0.0
  0
LINE
  8
0
 62
     9
 10
13.0914
 20
-0.00137804
 30
0.0
 11
13.0914
 21
4.00043
 31
0.0
  0
LINE
  8
0
 62
     9
 10
13.0914
 20
4.00043
 30
0.0
 11
4.00043
 21
4.00043
 31
0.0
  0
LINE
  8
0
 62
     9
 10
4.00043
 20
4.00043
 30
0.0
 11
4.00043
 21
16.0004
 31
0.0
  0
LINE
  8
0
 62
     9
 10
4.00043
 20
16.0004
 30
0.0
 11
0
 21
16.0004
 31
0.0
  0
LINE
  8
0
 62
     9
 10
0
 20
16.0004
 30
0.0
 11
0
 21
27.999
 31
0.0
  0
LINE
  8
0
 62
     9
 10
0
 20
27.999
 30
0.0
 11
4.00043
 21
27.999
 31
0.0
  0
LINE
  8
0
 62
     9
 10
4.00043
 20
27.999
 30
0.0
 11
4.00043
 21
40.0004
 31
0.0
  0
LINE
  8
0
 62
     9
 10
4.00043
 20
40.0004
 30
0.0
 11
0
 21
40.0004
 31
0.0
  0
LINE
  8
0
 62
     9
 10
0
 20
40.0004
 30
0.0
 11
0
 21
52.0001
 31
0.0
  0
LINE
  8
0
 62
     9
 10
0
 20
52.0001
 30
0.0
 11
4.00043
 21
52.0001
 31
0.0
  0
LINE
  8
0
 62
     9
 10
4.00043
 20
52.0001
 30
0.0
 11
4.00043
 21
63.9988
 31
0.0
  0
ENDSEC
  0
EOF
